<svg viewBox="77.506 47.218 344.989 405.563" width="344.989" height="405.563">
  <g transform="matrix(1.163792, 0, 0, 1.15566, -40.948002, 11.136828)">
    <title>Canarinho</title>
    <g style="" transform="matrix(1, 0, 0, 1, 0.473502, -22.905823)">
      <title>Background</title>
      <circle style="fill: rgb(255, 213, 0);" cx="250" cy="250" r="125.69" transform="matrix(1.062091, 0, 0, 1.033434, -15.522748, -8.358508)"></circle>
      <path d="M 397.744 282.386 C 397.744 371.175 290.388 405.064 246.68 405.064 C 202.973 405.064 101.309 375.253 101.309 280.641 C 101.309 186.027 204.705 197.905 248.412 197.905 C 292.12 197.905 397.744 193.599 397.744 282.386 Z" style="fill: rgb(255, 213, 0);"></path>
      <path d="M 267.208 163.287 C 265.434 173.76 263.063 139.321 253.616 134.466 C 247.357 131.249 243.438 151.527 237.374 147.955 C 222.583 139.244 314.175 157.848 206.518 106.727 C 195.268 101.385 156.159 96.013 183.022 68.07 C 209.023 41.024 246.176 56.204 261.323 88.964 C 271.753 111.521 271.358 138.784 267.208 163.287 Z" style="fill: rgb(255, 213, 0);"></path>
      <path d="M 298.772 136.367 C 297.857 142.7 296.634 121.874 291.762 118.938 C 288.534 116.993 286.513 129.255 283.385 127.095 C 275.757 121.827 322.994 133.078 267.472 102.163 C 261.67 98.933 241.5 95.684 255.354 78.786 C 268.764 62.43 287.925 71.61 295.737 91.421 C 301.116 105.062 300.912 121.549 298.772 136.367 Z" style="fill: rgb(255, 213, 0);" transform="matrix(0.135781, 0.990739, -0.990739, 0.135781, 340.983962, -182.990233)"></path>
    </g>
    <g transform="matrix(0.855397, 0, 0, 0.830685, 36.15089, -18.552097)" style="">
      <title>Olhos</title>
      <path d="M 310.822 310.665 C 290.075 310.665 266.961 276.941 271.629 276.03 C 298.3 270.825 298.189 260.868 309.721 245.832 C 318.08 234.933 334.902 227.011 348.046 234.71 C 363.305 243.648 362.883 260.182 362.883 269.303 C 362.883 291.991 333.51 310.665 310.822 310.665 Z" style="fill: rgb(120, 0, 199); stroke-width: 9.12755px; stroke: rgb(120, 0, 199);"></path>
      <path d="M 176.916 231.639 C 156.169 231.639 133.055 265.363 137.723 266.274 C 164.394 271.479 164.283 281.436 175.815 296.472 C 184.174 307.371 200.996 315.293 214.14 307.594 C 229.399 298.656 228.977 282.122 228.977 273.001 C 228.977 250.313 199.604 231.639 176.916 231.639 Z" style="fill: rgb(120, 0, 199); stroke-width: 9.12755px; stroke: rgb(120, 0, 199);" transform="matrix(-1, 0, 0, -1, 366.093704, 542.303864)"></path>
    </g>
    <g transform="matrix(0.85926, 0, 0, 0.865306, 35.185043, 2.477518)">
      <title>Sobrancelha</title>
      <path d="M 276.285 242.434 C 240.108 235.496 246.539 212.642 266.303 207.694 C 298.739 199.573 302.661 174.672 324.962 171.567" style="stroke: rgb(120, 0, 199); stroke-linecap: round; stroke-linejoin: round; fill: none; stroke-width: 10px;"></path>
      <path d="M 201.028 171.567 C 164.851 178.505 171.282 201.359 191.046 206.307 C 223.482 214.428 227.404 239.329 249.705 242.434" style="stroke: rgb(120, 0, 199); stroke-linecap: round; stroke-linejoin: round; fill: none; stroke-width: 10px;" transform="matrix(-1, 0, 0, -1, 424.742874, 414.001007)"></path>
    </g>
    <g style="" transform="matrix(1, 0, 0, 1, -0.000001, 13.967516)">
      <title>Bico</title>
      <path d="M 319.138 250 C 319.138 257.333 316.188 264.399 311.124 270.423 C 306.075 276.429 298.969 281.494 290.419 285.387 C 286.403 295.761 280.75 304.178 273.851 310.288 C 266.934 316.415 258.661 320.019 250 320.019 C 241.339 320.019 233.066 316.415 226.149 310.288 C 219.25 304.178 213.591 295.594 209.581 285.387 C 200.866 281.475 193.925 276.429 188.876 270.423 C 183.812 264.399 180.862 257.333 180.862 250 C 180.862 240.678 185.231 235.683 190.779 232.026 C 196.309 228.381 202.969 225.881 208.424 220.997 C 210.734 215.571 213.683 211.026 217.22 207.21 C 217.995 205.809 219.302 204.644 221.019 203.603 C 229.174 196.801 239.546 193.491 250.587 193.491 C 262.218 193.491 272.856 197.203 280.932 204.718 C 283.872 206.516 285.831 208.725 286.615 211.307 C 289.239 215.074 291.379 219.339 293.057 224.324 C 297.733 229.492 303.991 232.706 309.322 236.286 C 314.667 239.876 319.138 243.949 319.138 250 Z" style="stroke: rgb(120, 0, 199); fill: rgb(255, 213, 0); stroke-width: 8.62273px;"></path>
      <path style="fill: none; stroke: rgb(120, 0, 199); stroke-linecap: round; stroke-linejoin: round; stroke-width: 10px;" d="M 183.442 259.797 C 183.442 259.797 178.669 238.054 213.934 260.593 C 243.818 279.692 258.246 275.748 283.663 259.797 C 318.31 238.054 316.765 260.225 316.765 260.225"></path>
    </g>
  </g>
</svg>